<svg id="Symbol" xmlns="http://www.w3.org/2000/svg" width="32" height="32" viewBox="0 0 32 32">
  <path id="Path_46847" data-name="Path 46847" d="M0,0H32V32H0Z" fill="none"/>
  <g id="Group_43898" data-name="Group 43898" transform="translate(2.574 3.637)">
    <path id="XMLID_5_" d="M155.05,93.138a21.946,21.946,0,0,1,4.441,13.274,22.236,22.236,0,0,1-.284,3.535h8.071a1.273,1.273,0,0,0,1.271-1.273V86.358a1.27,1.27,0,0,0-1.586-1.235A21.993,21.993,0,0,0,155.05,93.138Z" transform="translate(-141.55 -85.081)" fill="#a4ce4e"/>
    <path id="XMLID_4_" d="M94.422,109.945a22.217,22.217,0,0,1-.284-3.535A21.959,21.959,0,0,1,98.58,93.136a21.986,21.986,0,0,0-11.914-8.013,1.27,1.27,0,0,0-1.586,1.235v22.313a1.272,1.272,0,0,0,1.271,1.273Z" transform="translate(-85.08 -85.081)" fill="#0090da"/>
    <path id="XMLID_2_" d="M136.471,126.84a21.946,21.946,0,0,0-4.441,13.274,22.236,22.236,0,0,0,.284,3.535h8.318a22.216,22.216,0,0,0,.284-3.535A21.948,21.948,0,0,0,136.471,126.84Z" transform="translate(-122.971 -118.783)" fill="#0061a0"/>
  </g>
</svg>
